HIERARCHY
ROOT Hips
{
	OFFSET 0.00000 0.00000 0.00000
	CHANNELS 6 Xposition Yposition Zposition Zrotation Yrotation Xrotation 
	JOINT LHipJoint
	{
		OFFSET 0 0 0
		CHANNELS 3 Zrotation Yrotation Xrotation
		JOINT LeftUpLeg
		{
			OFFSET 1.76014 -1.80163 0.38499
			CHANNELS 3 Zrotation Yrotation Xrotation
			JOINT LeftLeg
			{
				OFFSET 2.46817 -6.78126 0.00000
				CHANNELS 3 Zrotation Yrotation Xrotation
				JOINT LeftFoot
				{
					OFFSET 2.79348 -7.67503 0.00000
					CHANNELS 3 Zrotation Yrotation Xrotation
					JOINT LeftToeBase
					{
						OFFSET 0.09421 -0.25885 1.91403
						CHANNELS 3 Zrotation Yrotation Xrotation
						End Site
						{
							OFFSET 0.00000 -0.00000 0.97975
						}
					}
				}
			}
		}
	}
	JOINT RHipJoint
	{
		OFFSET 0 0 0
		CHANNELS 3 Zrotation Yrotation Xrotation
		JOINT RightUpLeg
		{
			OFFSET -1.77926 -1.80163 0.38499
			CHANNELS 3 Zrotation Yrotation Xrotation
			JOINT RightLeg
			{
				OFFSET -2.51996 -6.92353 0.00000
				CHANNELS 3 Zrotation Yrotation Xrotation
				JOINT RightFoot
				{
					OFFSET -2.76109 -7.58603 0.00000
					CHANNELS 3 Zrotation Yrotation Xrotation
					JOINT RightToeBase
					{
						OFFSET -0.08067 -0.22163 1.86812
						CHANNELS 3 Zrotation Yrotation Xrotation
						End Site
						{
							OFFSET -0.00000 -0.00000 0.95558
						}
					}
				}
			}
		}
	}
	JOINT LowerBack
	{
		OFFSET 0 0 0
		CHANNELS 3 Zrotation Yrotation Xrotation
		JOINT Spine
		{
			OFFSET 0.05537 1.92033 -0.03713
			CHANNELS 3 Zrotation Yrotation Xrotation
			JOINT Spine1
			{
				OFFSET 0.04452 1.90073 0.10860
				CHANNELS 3 Zrotation Yrotation Xrotation
				JOINT Neck
				{
					OFFSET 0 0 0
					CHANNELS 3 Zrotation Yrotation Xrotation
					JOINT Neck1
					{
						OFFSET 0.00903 1.74649 0.02074
						CHANNELS 3 Zrotation Yrotation Xrotation
						JOINT Head
						{
							OFFSET -0.08608 1.67844 -0.12081
							CHANNELS 3 Zrotation Yrotation Xrotation
							End Site
							{
								OFFSET -0.03521 1.83380 -0.05059
							}
						}
					}
				}
				JOINT LeftShoulder
				{
					OFFSET 0 0 0
					CHANNELS 3 Zrotation Yrotation Xrotation
					JOINT LeftArm
					{
						OFFSET 3.28197 0.84325 -0.19106
						CHANNELS 3 Zrotation Yrotation Xrotation
						JOINT LeftForeArm
						{
							OFFSET 5.24318 -0.00000 -0.00000
							CHANNELS 3 Zrotation Yrotation Xrotation
							JOINT LeftHand
							{
								OFFSET 2.98999 -0.00000 0.00000
								CHANNELS 3 Zrotation Yrotation Xrotation
								JOINT LeftFingerBase
								{
									OFFSET 0 0 0
									CHANNELS 3 Zrotation Yrotation Xrotation
									JOINT LeftHandIndex1
									{
										OFFSET 0.72674 -0.00000 0.00000
										CHANNELS 3 Zrotation Yrotation Xrotation
										End Site
										{
											OFFSET 0.58592 -0.00000 0.00000
										}
									}
								}
								JOINT LThumb
								{
									OFFSET 0 0 0
									CHANNELS 3 Zrotation Yrotation Xrotation
									End Site
									{
										OFFSET 0.59487 -0.00000 0.59487
									}
								}
							}
						}
					}
				}
				JOINT RightShoulder
				{
					OFFSET 0 0 0
					CHANNELS 3 Zrotation Yrotation Xrotation
					JOINT RightArm
					{
						OFFSET -3.30963 0.78377 0.14264
						CHANNELS 3 Zrotation Yrotation Xrotation
						JOINT RightForeArm
						{
							OFFSET -5.37045 -0.00000 0.00000
							CHANNELS 3 Zrotation Yrotation Xrotation
							JOINT RightHand
							{
								OFFSET -2.92792 -0.00000 0.00000
								CHANNELS 3 Zrotation Yrotation Xrotation
								JOINT RightFingerBase
								{
									OFFSET 0 0 0
									CHANNELS 3 Zrotation Yrotation Xrotation
									JOINT RightHandIndex1
									{
										OFFSET -0.78450 -0.00000 0.00000
										CHANNELS 3 Zrotation Yrotation Xrotation
										End Site
										{
											OFFSET -0.63248 -0.00000 0.00000
										}
									}
								}
								JOINT RThumb
								{
									OFFSET 0 0 0
									CHANNELS 3 Zrotation Yrotation Xrotation
									End Site
									{
										OFFSET -0.64214 -0.00000 0.64214
									}
								}
							}
						}
					}
				}
			}
		}
	}
}
MOTION
Frames: 15
Frame Time: .0083333
-0.1157 17.8884 -0.2007 0 0 0 0 0 0 -21 0 0 0 0 0 0 0 0 0 0 0 0 0 0 21 0 0 0 0 0 0 0 0 0 0 0 0 0 0 0 0 0 0 0 0 0 0 -16 0 0 21 0 0 11 0 0 0 -8 0 0 0 0 0 0 0 0 0 0 0 0 0 0 0 0 0 0 0 0 8 0 0 0 0 0 0 0 0 0 0 0 0 0 0 0 0 0
-0.1157 17.8884 -0.2007 4.1002 -37.5410 18.5381 0.0000 0.0000 0.0000 -24.6288 3.3846 -30.4311 1.8297 8.5020 24.2495 -1.0135 20.6265 -19.5190 0.0905 -1.9407 -5.3417 0.0000 0.0000 0.0000 1.8707 40.2940 -35.1332 -2.2127 -9.2958 26.7252 0.1209 -6.6062 -4.9737 -0.6329 5.0904 -14.1665 11.5380 -3.8156 5.1702 11.3440 -4.3850 0.5836 5.8816 -2.3513 -2.2370 8.2715 6.6465 4.9707 -29.7548 10.4345 5.4736 -10.7885 5.0365 2.7703 0.0000 -0.0000 0.0000 -88.9552 -9.0760 75.8570 129.7614 -53.0913 -93.6352 -0.0000 -0.0000 4.5104 10.5957 21.9969 4.0080 -7.1250 0.0000 -0.0000 -18.3833 51.3878 -2.9772 0.0000 -0.0000 0.0000 78.7495 3.2441 51.1647 -145.6283 44.3583 -105.6277 0.0000 -0.0000 -2.4902 -0.7013 -2.9191 0.0357 7.1250 -0.0000 -0.0000 20.6543 -32.3652 6.7777
-0.1151 17.8853 -0.2029 4.1383 -37.7583 18.6350 0.0000 0.0000 0.0000 -24.7408 3.5093 -30.6397 1.8340 8.5113 24.2782 -1.0309 20.6735 -19.3931 0.1114 -2.1518 -5.9255 0.0000 0.0000 0.0000 1.6906 40.3255 -35.4305 -2.2272 -9.3240 26.8142 0.1119 -6.3991 -4.9263 -0.6065 4.9848 -13.8652 11.4272 -3.7652 5.2120 11.3383 -4.3215 0.6063 5.9317 -2.3191 -2.2298 8.2779 6.6918 4.9753 -29.9170 10.4621 5.2688 -10.8476 5.0649 2.7275 0.0000 -0.0000 0.0000 -88.9680 -9.0868 75.7796 129.8681 -53.0486 -93.7204 -0.0000 -0.0000 4.5605 10.6489 22.2214 4.0675 -7.1250 0.0000 -0.0000 -18.4396 51.6104 -3.0898 0.0000 -0.0000 0.0000 78.7352 3.3158 51.2805 -145.6557 44.3382 -105.6468 0.0000 -0.0000 -2.4410 -0.7333 -2.9596 0.0379 7.1250 -0.0000 -0.0000 20.6389 -32.4045 6.7511
-0.1135 17.8844 -0.2003 4.2444 -37.5265 18.6125 0.0000 0.0000 0.0000 -24.7781 3.3401 -30.6381 1.8333 8.5100 24.2740 -1.0237 20.6011 -19.3177 0.1164 -2.1999 -6.0585 0.0000 0.0000 0.0000 1.5531 40.2779 -35.5067 -2.2438 -9.3564 26.9168 0.1165 -6.5556 -5.1069 -0.5618 4.8010 -13.3418 11.5469 -3.8708 5.1918 11.3297 -4.4560 0.6068 5.8675 -2.3855 -2.2252 8.2276 6.7451 4.9223 -30.0240 10.4980 5.0748 -10.8718 5.0914 2.6942 0.0000 0.0000 0.0000 -88.9661 -9.1248 75.7165 129.9676 -53.0086 -93.8000 -0.0000 -0.0000 4.6265 10.7212 22.3552 4.1189 -7.1250 0.0000 -0.0000 -18.4347 51.7498 -3.1534 0.0000 0.0000 0.0000 78.7322 3.4176 51.3709 -145.6840 44.3175 -105.6666 0.0000 -0.0000 -2.4119 -0.7639 -3.0263 0.0403 7.1250 -0.0000 -0.0000 20.6304 -32.4684 6.7139
-0.1113 17.8831 -0.1984 4.2903 -37.3454 18.6282 0.0000 0.0000 0.0000 -24.7811 3.2069 -30.6541 1.8333 8.5098 24.2736 -1.0237 20.5787 -19.2631 0.1215 -2.2470 -6.1888 0.0000 0.0000 0.0000 1.4762 40.2276 -35.5934 -2.2586 -9.3851 27.0074 0.1199 -6.6593 -5.2120 -0.5640 4.8098 -13.3670 11.6754 -3.9562 5.1218 11.3379 -4.5844 0.6664 5.8082 -2.4467 -2.1289 8.1554 6.7899 4.9197 -30.1774 10.4931 4.7571 -10.9130 5.1108 2.6096 -0.0000 0.0000 0.0000 -88.9839 -9.2251 75.6252 130.0628 -52.9701 -93.8760 -0.0000 -0.0000 4.6175 10.7971 22.3043 4.1398 -7.1250 0.0000 -0.0000 -18.3376 51.7140 -3.1194 -0.0000 0.0000 0.0000 78.7503 3.6058 51.4500 -145.6869 44.3154 -105.6687 0.0000 -0.0000 -2.3515 -0.7516 -3.0157 0.0395 7.1250 -0.0000 -0.0000 20.6375 -32.4579 6.7220
-0.1087 17.8820 -0.1973 4.3796 -37.2093 18.5915 0.0000 0.0000 0.0000 -24.8322 3.1132 -30.6575 1.8332 8.5096 24.2731 -1.0285 20.5669 -19.1674 0.1317 -2.3389 -6.4433 0.0000 0.0000 0.0000 1.3733 40.1755 -35.6503 -2.2729 -9.4128 27.0952 0.1205 -6.7278 -5.3788 -0.4889 4.4834 -12.4409 11.6932 -4.0105 5.4097 11.3909 -4.5721 0.5211 5.8926 -2.4497 -2.4442 8.1061 6.8015 5.0524 -30.3914 10.4818 4.6188 -10.9918 5.1228 2.5535 0.0000 0.0000 0.0000 -89.1407 -9.0325 75.6753 130.1455 -52.9367 -93.9420 -0.0000 -0.0000 4.6696 10.7864 22.3192 4.1382 -7.1250 0.0000 -0.0000 -18.3550 51.7265 -3.1282 0.0000 0.0000 0.0000 78.6312 3.3902 51.5201 -145.7874 44.2416 -105.7388 0.0000 -0.0000 -2.3483 -0.8375 -3.0644 0.0448 7.1250 -0.0000 -0.0000 20.5825 -32.5074 6.6756
-0.1083 17.8803 -0.1978 4.3685 -37.2377 18.6640 0.0000 0.0000 0.0000 -24.8379 3.1266 -30.7631 1.8393 8.5230 24.3141 -1.0271 20.5460 -19.1359 0.1327 -2.3479 -6.4683 0.0000 0.0000 0.0000 1.2778 40.2564 -35.7828 -2.2838 -9.4338 27.1619 0.1186 -6.7275 -5.4952 -0.4446 4.2784 -11.8612 11.7000 -3.9837 5.5260 11.4450 -4.5079 0.4858 5.9561 -2.4216 -2.5446 8.0548 6.8219 5.0967 -30.5988 10.4800 4.4626 -11.0628 5.1348 2.5105 0.0000 -0.0000 0.0000 -89.2514 -8.9940 75.7034 130.2032 -52.9132 -93.9881 -0.0000 -0.0000 4.7434 10.7351 22.2260 4.1019 -7.1250 0.0000 -0.0000 -18.3595 51.6292 -3.0843 0.0000 -0.0000 0.0000 78.5350 3.3173 51.5297 -145.9119 44.1499 -105.8256 0.0000 -0.0000 -2.3880 -0.8434 -3.2580 0.0479 7.1250 -0.0000 -0.0000 20.6217 -32.6888 6.5930
-0.1094 17.8766 -0.2000 4.3721 -37.4361 18.7854 0.0000 0.0000 0.0000 -24.9165 3.2615 -30.9901 1.8506 8.5478 24.3907 -1.0048 20.4428 -19.1980 0.1193 -2.2267 -6.1325 0.0000 0.0000 0.0000 1.1134 40.3528 -36.0412 -2.2917 -9.4490 27.2102 0.1143 -6.6297 -5.4635 -0.4125 4.1228 -11.4223 11.5311 -3.9328 5.5566 11.5257 -4.4502 0.5001 6.1323 -2.3932 -2.5280 7.8998 6.9009 5.0663 -30.7425 10.5504 4.2955 -11.0813 5.1762 2.4848 -0.0000 -0.0000 0.0000 -89.3970 -8.9928 75.6040 130.2541 -52.8925 -94.0286 -0.0000 -0.0000 4.8320 10.6857 22.1168 4.0636 -7.1250 0.0000 -0.0000 -18.3544 51.5169 -3.0317 -0.0000 -0.0000 0.0000 78.3984 3.3696 51.5806 -145.9663 44.1097 -105.8635 0.0000 -0.0000 -2.3418 -0.7702 -3.2482 0.0436 7.1250 -0.0000 -0.0000 20.6758 -32.6763 6.6192
-0.1101 17.8722 -0.2016 4.3001 -37.5050 18.9257 0.0000 0.0000 0.0000 -24.9050 3.3719 -31.1940 1.8653 8.5796 24.4889 -0.9797 20.3122 -19.2357 0.1226 -2.2571 -6.2167 0.0000 0.0000 0.0000 1.0971 40.3586 -36.2222 -2.2957 -9.4566 27.2344 0.1120 -6.5465 -5.3601 -0.4660 4.3788 -12.1448 11.5160 -3.9118 5.5957 11.5769 -4.4210 0.5228 6.1965 -2.3794 -2.5207 7.8531 6.9561 5.0264 -30.8581 10.5803 4.0689 -11.1109 5.2048 2.4399 -0.0000 -0.0000 0.0000 -89.4413 -9.0140 75.5337 130.3570 -52.8505 -94.1107 -0.0000 -0.0000 4.7504 10.7133 22.0669 4.0656 -7.1250 0.0000 -0.0000 -18.3043 51.4739 -3.0032 -0.0000 -0.0000 0.0000 78.3853 3.4483 51.6031 -145.9653 44.1104 -105.8628 0.0000 -0.0000 -2.2858 -0.7518 -3.1336 0.0411 7.1250 -0.0000 -0.0000 20.6639 -32.5681 6.6727
-0.1099 17.8687 -0.2022 4.1965 -37.4925 19.0660 0.0000 0.0000 0.0000 -24.8358 3.4182 -31.3703 1.8806 8.6128 24.5913 -0.9661 20.2330 -19.2361 0.1315 -2.3378 -6.4402 0.0000 0.0000 0.0000 1.1008 40.4071 -36.3418 -2.3003 -9.4654 27.2623 0.1139 -6.5748 -5.3279 -0.4751 4.4203 -12.2623 11.6213 -3.9085 5.6418 11.5886 -4.4032 0.5351 6.1547 -2.3721 -2.5407 7.9144 6.9680 5.0809 -31.0228 10.5399 3.7784 -11.1886 5.2134 2.3532 -0.0000 0.0000 0.0000 -89.3673 -9.0214 75.5276 130.4789 -52.8005 -94.2078 -0.0000 -0.0000 4.6750 10.7612 22.1171 4.0929 -7.1250 0.0000 -0.0000 -18.2825 51.5295 -3.0249 -0.0000 0.0000 0.0000 78.4334 3.5110 51.6318 -145.9711 44.1061 -105.8668 0.0000 -0.0000 -2.2955 -0.7245 -3.0229 0.0382 7.1250 -0.0000 -0.0000 20.6600 -32.4634 6.7273
-0.1092 17.8688 -0.2011 4.1935 -37.4403 19.0864 0.0000 0.0000 0.0000 -24.8246 3.4121 -31.4442 1.8936 8.6408 24.6780 -0.9594 20.1814 -19.2070 0.1326 -2.3473 -6.4664 0.0000 0.0000 0.0000 1.0834 40.3976 -36.3796 -2.3075 -9.4791 27.3058 0.1155 -6.6193 -5.3652 -0.4590 4.3458 -12.0516 11.7192 -3.9072 5.6800 11.5647 -4.3932 0.5733 6.0757 -2.3668 -2.5306 7.9783 6.9735 5.0273 -31.1537 10.5175 3.5986 -11.2486 5.2135 2.3198 0.0000 0.0000 0.0000 -89.2927 -9.1024 75.6071 130.5445 -52.7735 -94.2601 -0.0000 -0.0000 4.6675 10.8790 22.1497 4.1444 -7.1250 0.0000 -0.0000 -18.1854 51.5802 -3.0310 0.0000 0.0000 0.0000 78.5087 3.5581 51.5637 -146.0099 44.0774 -105.8938 0.0000 -0.0000 -2.2283 -0.7100 -2.9393 0.0364 7.1250 -0.0000 -0.0000 20.6522 -32.3845 6.7666
-0.1076 17.8673 -0.2010 4.2597 -37.4039 19.0474 0.0000 0.0000 0.0000 -24.8862 3.4177 -31.5118 1.9063 8.6680 24.7623 -0.9655 20.1763 -19.1095 0.1437 -2.4434 -6.7328 0.0000 0.0000 0.0000 1.0385 40.3327 -36.4084 -2.3146 -9.4927 27.3491 0.1133 -6.5779 -5.3722 -0.4526 4.3162 -11.9680 11.7544 -3.9171 5.7968 11.5342 -4.3809 0.5840 6.0321 -2.3613 -2.5906 8.0269 7.0085 4.9080 -31.2647 10.5572 3.5047 -11.2918 5.2319 2.3345 0.0000 -0.0000 0.0000 -89.2831 -9.1209 75.6479 130.5841 -52.7572 -94.2916 -0.0000 -0.0000 4.6945 11.0200 22.1505 4.1995 -7.1250 0.0000 -0.0000 -18.0509 51.6042 -3.0182 0.0000 -0.0000 0.0000 78.5614 3.5352 51.5449 -146.1095 44.0034 -105.9631 0.0000 -0.0000 -2.2053 -0.7435 -2.9167 0.0378 7.1250 -0.0000 -0.0000 20.6215 -32.3649 6.7658
-0.1075 17.8635 -0.2007 4.2666 -37.3807 19.0776 0.0000 0.0000 0.0000 -24.9205 3.4918 -31.6324 1.9176 8.6924 24.8377 -0.9615 20.1159 -19.0223 0.1559 -2.5442 -7.0123 0.0000 0.0000 0.0000 1.0030 40.3145 -36.4865 -2.3229 -9.5086 27.3997 0.1109 -6.5429 -5.4169 -0.4249 4.1834 -11.5933 11.7950 -3.9318 5.9445 11.5389 -4.3598 0.5403 6.0303 -2.3545 -2.7240 8.0386 7.0598 4.9067 -31.3925 10.6027 3.3556 -11.3397 5.2662 2.3120 -0.0000 -0.0000 0.0000 -89.3118 -9.0151 75.6402 130.6823 -52.7166 -94.3697 -0.0000 -0.0000 4.7721 11.0752 22.2095 4.2316 -7.1250 0.0000 -0.0000 -18.0261 51.6698 -3.0434 -0.0000 -0.0000 0.0000 78.5598 3.4426 51.5878 -146.1945 43.9401 -106.0221 0.0000 -0.0000 -2.2555 -0.7002 -2.9332 0.0358 7.1250 -0.0000 -0.0000 20.6583 -32.3783 6.7722
-0.1082 17.8610 -0.2022 4.1879 -37.3844 19.1794 0.0000 0.0000 0.0000 -24.8683 3.5488 -31.7765 1.9309 8.7206 24.9253 -0.9498 20.0478 -19.0254 0.1674 -2.6357 -7.2661 0.0000 0.0000 0.0000 1.0443 40.2988 -36.6021 -2.3310 -9.5240 27.4485 0.1106 -6.5149 -5.3515 -0.4826 4.4549 -12.3600 11.8446 -3.9320 6.0720 11.5749 -4.3255 0.5057 6.0546 -2.3414 -2.8344 8.0283 7.0964 4.9769 -31.5220 10.6102 3.1515 -11.3897 5.2917 2.2512 0.0000 0.0000 0.0000 -89.3533 -8.9620 75.5737 130.7654 -52.6821 -94.4358 -0.0000 -0.0000 4.7966 10.8936 22.2279 4.1640 -7.1250 0.0000 -0.0000 -18.2086 51.6572 -3.0703 0.0000 0.0000 0.0000 78.4810 3.3446 51.6157 -146.3033 43.8588 -106.0975 0.0000 -0.0000 -2.3348 -0.6957 -3.0507 0.0370 7.1250 -0.0000 -0.0000 20.6882 -32.4881 6.7244
-0.1085 17.8582 -0.2040 4.1270 -37.4053 19.2783 0.0000 0.0000 0.0000 -24.8413 3.6264 -31.9294 1.9429 8.7461 25.0042 -0.9280 19.9264 -19.0449 0.1598 -2.5758 -7.0998 0.0000 0.0000 0.0000 1.0233 40.3336 -36.7304 -2.3386 -9.5383 27.4942 0.1072 -6.4425 -5.3490 -0.4731 4.4114 -12.2371 11.8981 -3.9169 6.1106 11.5869 -4.2992 0.5331 6.0383 -2.3289 -2.8300 8.0253 7.1115 4.9896 -31.6672 10.5803 2.9169 -11.4467 5.2970 2.1859 -0.0000 -0.0000 0.0000 -89.3188 -9.0165 75.5623 130.8890 -52.6306 -94.5341 -0.0000 -0.0000 4.6794 10.7914 22.3019 4.1371 -7.1250 0.0000 -0.0000 -18.3419 51.7108 -3.1187 -0.0000 -0.0000 0.0000 78.4344 3.3743 51.6158 -146.3418 43.8299 -106.1242 0.0000 -0.0000 -2.3898 -0.7545 -3.0749 0.0405 7.1250 -0.0000 -0.0000 20.6485 -32.5134 6.6964
